<svg width="243" height="243" viewBox="0 0 243 243" fill="none" xmlns="http://www.w3.org/2000/svg">
<rect x="121.114" y="242.228" width="171.281" height="171.281" rx="20" transform="rotate(-135 121.114 242.228)" fill="#EEEDFF"/>
<path d="M14.6547 135.462C6.84425 127.652 6.84425 114.987 14.6547 107.177L107.485 14.3479C111.351 10.4813 116.407 8.52967 121.475 8.49145L121.475 234.148C116.407 234.109 111.351 232.158 107.485 228.291L14.6547 135.462Z" fill="#E3E2FF"/>
<path d="M121.075 94.2833C127.319 94.2833 132.234 95.6353 135.757 98.4054L136.084 98.6691C139.405 101.434 141.054 105.256 141.054 110.073L141.054 132.019C141.054 136.259 141.238 139.294 141.597 141.151L141.864 142.4C141.941 142.763 142.005 143.074 142.057 143.333C142.108 143.592 142.147 143.802 142.174 143.96C142.197 144.101 142.219 144.243 142.219 144.338C142.219 144.89 141.996 145.368 141.588 145.749C141.194 146.116 140.64 146.383 139.972 146.578L139.962 146.581C138.706 146.921 137.515 147.093 136.392 147.093C135.848 147.093 135.353 146.939 134.928 146.623C134.508 146.311 134.184 145.862 133.937 145.313L133.935 145.306L133.932 145.298C133.508 144.268 133.094 142.805 132.685 140.925L132.683 140.917L132.65 140.759C130.719 142.716 128.486 144.299 125.952 145.505C123.137 146.862 119.935 147.533 116.358 147.533C111.246 147.533 107.058 146.284 103.841 143.74C100.587 141.168 98.9893 137.359 98.9893 132.403C98.9893 127.361 100.501 123.457 103.586 120.776L103.89 120.521C106.909 118.022 110.537 116.372 114.76 115.561L115.612 115.409C120.078 114.654 125.452 114.217 131.729 114.093V109.963C131.729 107.637 130.931 105.819 129.351 104.457L129.342 104.449C127.815 103.071 125.213 102.323 121.408 102.323C118.524 102.323 116.005 102.668 113.845 103.346L113.84 103.347C111.952 103.918 110.164 104.599 108.476 105.391L107.758 105.736C107.346 105.94 107.005 106.097 106.738 106.205C106.605 106.259 106.483 106.304 106.376 106.335C106.279 106.364 106.157 106.394 106.037 106.394C105.367 106.394 104.74 105.935 104.166 105.291L104.155 105.279L104.146 105.267C103.606 104.579 103.126 103.817 102.705 102.984L102.701 102.975L102.697 102.967C102.328 102.162 102.097 101.486 102.097 100.998C102.097 100.397 102.406 99.8399 102.886 99.3341C103.368 98.8256 104.068 98.3205 104.958 97.8136L104.962 97.8116L105.311 97.6222C107.089 96.6868 109.332 95.911 112.028 95.2863L112.571 95.1652C115.294 94.5772 118.129 94.2834 121.075 94.2833ZM131.729 122.129C127.685 122.169 124.262 122.324 121.457 122.596L120.246 122.725C117.167 123.084 114.484 123.997 112.187 125.455L112.183 125.458C109.982 126.821 108.868 128.94 108.868 131.908C108.868 134.421 109.545 136.274 110.828 137.547C112.147 138.781 114.11 139.439 116.803 139.439C119.999 139.439 122.691 138.862 124.898 137.734C127.094 136.61 129.371 135.016 131.729 132.945V122.129Z" fill="#413EDC" stroke="#413EDC"/>
<path d="M81.6032 82.4987C83.6207 80.6873 86.7355 80.7477 88.6797 82.6799C90.6239 84.6121 90.6847 87.7076 88.862 89.7125L88.6797 89.9031L57.4813 120.908L88.6797 151.913L88.862 152.104C90.6847 154.109 90.6239 157.204 88.6797 159.137C86.7355 161.069 83.6207 161.129 81.6032 159.318L81.4114 159.137L42.9453 120.908L81.4114 82.6799L81.6032 82.4987Z" fill="#413EDC"/>
<path d="M159.489 82.4646C157.478 80.6786 154.395 80.7636 152.485 82.7011C150.576 84.6386 150.541 87.7178 152.361 89.6977L152.543 89.8863L184.473 121.266L152.543 152.646L152.361 152.834C150.541 154.814 150.576 157.894 152.485 159.831C154.395 161.769 157.478 161.854 159.489 160.068L159.68 159.889L198.979 121.266L159.68 82.6432L159.489 82.4646Z" fill="#413EDC"/>
</svg>
