<svg width="266" height="109" viewBox="0 0 266 109" fill="none" xmlns="http://www.w3.org/2000/svg">
<path d="M10 60.5035V47.2314L67.6929 17.8433V34.3656L25.4389 53.732L67.6929 73.6401V90.1625L10 60.5035Z" fill="#6366F1"/>
<path d="M266 60.5035V47.2314L208.307 17.8433V34.3656L250.561 53.732L208.307 73.6401V90.1625L266 60.5035Z" fill="#6366F1"/>
<path d="M126 11L86.9075 102H75L113.98 11H126Z" fill="#6366F1"/>
<path d="M147.042 91.7722C140.451 91.5013 135.26 89.6053 131.468 86.0842C127.676 82.563 125.78 77.5973 125.78 71.1869C125.78 66.4018 126.908 62.3841 129.166 59.1337C131.513 55.7932 134.673 53.1749 138.646 51.2789C142.618 49.3828 147.087 48.2543 152.053 47.8931C157.109 47.4417 162.301 47.7577 167.627 48.8411V44.5074C167.627 41.8891 166.77 39.8576 165.054 38.4131C163.429 36.9685 161.262 36.0205 158.554 35.5691C155.935 35.1176 153.091 35.1176 150.022 35.5691C147.042 36.0205 144.198 36.9234 141.49 38.2776C138.871 39.5417 136.75 41.1668 135.124 43.1531L126.863 34.2148C130.023 30.8742 133.815 28.2559 138.239 26.3599C142.754 24.4639 147.403 23.3353 152.188 22.9741C157.064 22.613 161.623 23.0644 165.867 24.3284C170.201 25.5022 173.857 27.5336 176.837 30.4228C179.816 33.041 181.486 36.5622 181.847 40.9862C182.209 45.4103 182.389 50.376 182.389 55.8834V91.095H167.763V84.8653C164.783 87.3933 161.488 89.199 157.877 90.2825C154.265 91.3659 150.654 91.8625 147.042 91.7722ZM167.357 73.083V59.4046C157.515 58.5017 150.292 59.0435 145.688 61.0298C141.174 62.9258 138.916 66.2664 138.916 71.0515C138.916 74.031 139.91 76.1978 141.896 77.5521C143.972 78.8161 146.5 79.4481 149.48 79.4481C152.55 79.3578 155.665 78.771 158.825 77.6876C162.075 76.5138 164.919 74.979 167.357 73.083Z" fill="#6366F1"/>
</svg>
